<?xml version="1.0" encoding="utf-8"?>
<!-- Generator: Adobe Illustrator 24.3.0, SVG Export Plug-In . SVG Version: 6.00 Build 0)  -->
<svg version="1.1" id="Layer_1" xmlns="http://www.w3.org/2000/svg" xmlns:xlink="http://www.w3.org/1999/xlink" x="0px" y="0px"
	 viewBox="0 0 134 125" style="enable-background:new 0 0 134 125;" xml:space="preserve">
<style type="text/css">
	.st0{fill:#011627;}
</style>
<g id="Layer_x0020_1">
	<g id="_2744492901664">
		<g>
			<path class="st0" d="M124.1,62.5c0-15.9-6.4-30.2-16.8-40.7C96.8,11.4,82.5,5,66.6,5s-30.2,6.4-40.7,16.8
				C15.5,32.3,9.1,46.6,9.1,62.5s6.4,30.2,16.8,40.7C36.4,113.6,50.7,120,66.6,120s30.2-6.4,40.7-16.8
				C117.7,92.7,124.1,78.4,124.1,62.5z M52.9,84.9l34.9-22.4L52.9,40.1V84.9z M93.8,64.6L51.9,91.5C51.5,91.8,51,92,50.4,92
				c-1.4,0-2.5-1.1-2.5-2.5v-54l0,0c0-0.5,0.1-0.9,0.4-1.4c0.7-1.1,2.3-1.5,3.5-0.7l42,27L93.8,64.6z M94.5,61.1
				c0.7,1.2,0.4,2.7-0.7,3.5L94.5,61.1z M110.8,18.3c11.3,11.3,18.3,26.9,18.3,44.2s-7,32.9-18.3,44.2S83.9,125,66.6,125
				s-32.9-7-44.2-18.3S4.1,79.8,4.1,62.5s7-32.9,18.3-44.2S49.3,0,66.6,0S99.5,7,110.8,18.3z"/>
		</g>
	</g>
</g>
</svg>
