<?xml version="1.0" encoding="UTF-8"?>
<svg version="1.1" viewBox="0 0 300 300" xmlns="http://www.w3.org/2000/svg">
 <g transform="translate(150 150)">
  <path d="m124.66 0c0 68.85-55.814 124.66-124.66 124.66s-124.66-55.814-124.66-124.66 55.814-124.66 124.66-124.66 124.66 55.814 124.66 124.66z" fill="#fff" stroke="#000" stroke-linecap="square" stroke-width="20"/>
  <path d="m65.638-21.83q-14.553 0-43.659 0 0-14.85 0-43.956-14.553 0-43.956 0 0 14.553 0 43.956-14.553 0-43.659 0 0 7.1281 0 18.117 0 10.989 0 25.542 14.553 0 43.659 0 0 14.553 0 43.956 14.85 0 43.956 0 0-14.85 0-43.956 14.553 0 43.659 0 0-14.553 0-43.659z"/>
 </g>
</svg>
