<?xml version="1.0" encoding="UTF-8"?>
<svg viewBox="0 0 421.81619 562.03558" xmlns="http://www.w3.org/2000/svg">
 <g transform="translate(-542.95 -195.89)" fill-rule="evenodd">
  <path d="m713.47 204.89v74.226c-91.82 18.86-161.51 100.64-161.51 197.79 0 96.668 69.012 178.12 160.15 197.51l-67.008-67.008 41.058-41.058c-26.951-20.333-44.214-52.667-44.214-89.444 0-48.051 29.471-88.501 71.524-104.52v115.53l141.52-141.52-141.52-141.52z"/>
  <path d="m795.61 279.41 67.008 66.993-41.074 41.074c26.961 20.328 44.23 52.647 44.23 89.428 0 48.051-29.47 88.512-71.524 104.54v-115.55l-141.52 141.52 141.52 141.52v-74.226c91.812-18.87 161.51-100.65 161.51-197.79 0-96.667-69.01-178.1-160.15-197.49z"/>
 </g>
</svg>
