<?xml version="1.0" encoding="UTF-8"?>
<svg width="149.37" height="149.37" viewBox="0 0 149.3725 133.9556" xmlns="http://www.w3.org/2000/svg">
 <defs>
  <linearGradient id="d" x1="58.197" x2="99.176" y1="63.445" y2="26.563" gradientUnits="userSpaceOnUse">
   <stop stop-color="#323232" offset="0"/>
   <stop offset=".5"/>
   <stop stop-color="#fff" offset="1"/>
  </linearGradient>
  <linearGradient id="e" x2="0" y1="521.18" y2="498.94" gradientUnits="userSpaceOnUse">
   <stop stop-color="#fff" stop-opacity="0" offset="0"/>
   <stop stop-color="#fff" offset="1"/>
  </linearGradient>
  <radialGradient id="a" cx="100.05" cy="483.73" r="27.352" fx="100.76" fy="461.42" gradientUnits="userSpaceOnUse">
   <stop stop-opacity=".53725" offset="0"/>
   <stop stop-color="#fff" stop-opacity=".26667" offset=".5"/>
   <stop stop-opacity=".13333" offset=".75"/>
   <stop stop-opacity="0" offset="1"/>
  </radialGradient>
  <radialGradient id="c" cx="99.33" cy="480.49" r="42.109" fx="101.85" fy="457.1" gradientUnits="userSpaceOnUse">
   <stop stop-color="#fff" offset="0"/>
   <stop stop-color="#dadada" offset=".5038"/>
   <stop stop-color="#bdbdbd" offset=".5138"/>
   <stop stop-color="#dedede" offset=".64667"/>
   <stop stop-color="#fff" offset="1"/>
  </radialGradient>
  <radialGradient id="b" cx="99.33" cy="481.57" r="42.109" fx="101.49" fy="495.61" gradientUnits="userSpaceOnUse">
   <stop stop-opacity="0" offset="0"/>
   <stop stop-opacity="0" offset=".5"/>
   <stop offset="1"/>
  </radialGradient>
 </defs>
 <path transform="matrix(2.7306 0 0 1.4884 -198.51 -626.73)" d="m127.4 483.73a27.352 27.352 0 1 1 -54.704 0 27.352 27.352 0 1 1 54.704 0z" fill="url(#a)" fill-rule="evenodd"/>
 <path transform="matrix(1.7364 0 0 1.7364 -99.604 -792.36)" d="m127.4 483.73a27.352 27.352 0 1 1 -54.704 0 27.352 27.352 0 1 1 54.704 0z" fill="url(#c)" fill-rule="evenodd"/>
 <path transform="matrix(1.7364 0 0 1.7364 -99.323 -792.44)" d="m127.4 483.73a27.352 27.352 0 1 1 -54.704 0 27.352 27.352 0 1 1 54.704 0z" fill="url(#b)" fill-rule="evenodd"/>
 <path transform="matrix(1.2917 0 0 1.5246 -126.08 -758.12)" d="m184.98 527.64a29.511 29.511 0 1 1 -59.022 0 29.511 29.511 0 1 1 59.022 0z" fill="url(#e)" fill-rule="evenodd"/>
 <path d="m49.006 43.406h18.855v-18.955h12.609v18.955h18.955v12.609h-18.955v18.855h-12.609v-18.855h-18.855v-12.609z" fill="url(#d)" stroke="#000" stroke-linecap="round" stroke-linejoin="round" stroke-opacity=".14876" stroke-width="6.2073"/>
</svg>
